<?xml version="1.0" encoding="utf-8"?>
<!-- Generator: Adobe Illustrator 16.2.0, SVG Export Plug-In . SVG Version: 6.00 Build 0)  -->
<!DOCTYPE svg PUBLIC "-//W3C//DTD SVG 1.1//EN" "http://www.w3.org/Graphics/SVG/1.1/DTD/svg11.dtd">
<svg version="1.1" id="Слой_1" xmlns="http://www.w3.org/2000/svg" xmlns:xlink="http://www.w3.org/1999/xlink" x="0px" y="0px"
	 width="94.924px" height="50px" viewBox="0 0 94.924 50" enable-background="new 0 0 94.924 50" xml:space="preserve">
<g>
	<path fill="#D52A2D" d="M15.348,6.495c-0.011,0-0.023-0.006-0.034-0.017c-0.171-0.045-0.348-0.091-0.531-0.137h-0.068
		c-0.023-0.011-0.039-0.017-0.05-0.017c-0.16-0.035-0.325-0.063-0.497-0.086l-0.137-0.017c-0.217-0.011-0.417-0.017-0.599-0.017
		h-0.12c-0.183,0-0.388,0.005-0.616,0.017l-0.12,0.017c-0.171,0.022-0.336,0.051-0.496,0.086c-0.012,0-0.034,0.005-0.068,0.017
		H11.96c-0.183,0.046-0.359,0.092-0.53,0.137c-0.023,0.011-0.04,0.017-0.051,0.017c-2.098,0.65-3.501,2.019-4.209,4.106
		c0.023-0.058,0.018-0.028-0.017,0.085c-0.206,0.65-0.308,1.312-0.308,1.985v9.601c0,0.445,0.153,0.828,0.461,1.146
		c0.319,0.309,0.702,0.462,1.146,0.462c0.434,0,0.81-0.154,1.129-0.462c0.308-0.318,0.462-0.701,0.462-1.146v-5.427h2.587v0.023
		h2.038c0.445,0,0.822-0.16,1.129-0.479c0.309-0.309,0.462-0.685,0.462-1.129c0-0.434-0.153-0.81-0.462-1.129
		c-0.308-0.308-0.685-0.462-1.129-0.462h-1.979v-0.023h-2.646v-0.974c0-0.434,0.085-0.85,0.256-1.249
		c0.012-0.034,0.018-0.045,0.018-0.034c0.113-0.285,0.268-0.547,0.461-0.787c0.011,0,0.023-0.006,0.034-0.019
		c0-0.01,0.005-0.022,0.018-0.033c0.103-0.114,0.217-0.228,0.341-0.342c0.058-0.057,0.091-0.086,0.104-0.086
		c0.068-0.056,0.137-0.108,0.205-0.154c0.057-0.045,0.131-0.091,0.223-0.137c0.057-0.034,0.138-0.074,0.239-0.12
		c0.069-0.034,0.143-0.068,0.223-0.103l0.171-0.051c0.125-0.046,0.257-0.08,0.394-0.103c0.023,0,0.068-0.006,0.137-0.017
		c0.161-0.022,0.302-0.034,0.428-0.034h0.154c0.125,0,0.268,0.012,0.428,0.034c0.068,0.011,0.114,0.017,0.137,0.017
		c0.136,0.023,0.268,0.057,0.393,0.103c0.012,0,0.063,0.017,0.154,0.051c0.08,0.034,0.16,0.069,0.239,0.103
		c0.091,0.046,0.171,0.086,0.24,0.12c0.08,0.046,0.154,0.091,0.222,0.137c0.069,0.046,0.137,0.098,0.206,0.154
		c0.023,0.023,0.057,0.052,0.102,0.086c0.125,0.114,0.239,0.228,0.342,0.342c0.034,0.045,0.045,0.063,0.034,0.052
		c0.194,0.239,0.369,0.675,0.677,0.994c0.307,0.308,0.684,0.462,1.129,0.462c0.445,0,0.821-0.154,1.129-0.462
		c0.319-0.319,0.686-0.983,0.674-0.994C18.85,8.513,17.447,7.145,15.348,6.495z"/>
	<path fill="#D52A2D" d="M19.09,30.968c0-0.022-0.006-0.041-0.018-0.051c-0.707-2.087-2.109-3.456-4.208-4.106
		c-0.011,0-0.023-0.005-0.033-0.017c-0.172-0.045-0.349-0.091-0.531-0.137h-0.068c-0.023-0.011-0.04-0.017-0.052-0.017
		c-0.16-0.035-0.325-0.063-0.496-0.085l-0.137-0.017c-0.216-0.012-0.416-0.018-0.599-0.018h-0.12c-0.183,0-0.387,0.006-0.616,0.018
		l-0.12,0.017c-0.171,0.023-0.337,0.051-0.496,0.085c-0.012,0-0.034,0.006-0.068,0.017h-0.051c-0.183,0.046-0.36,0.091-0.531,0.137
		c-0.023,0.012-0.04,0.017-0.051,0.017c-2.099,0.65-3.501,2.019-4.208,4.106c0.022-0.057,0.017-0.028-0.018,0.086
		c-0.205,0.649-0.307,1.312-0.307,1.984v9.602c0,0.444,0.153,0.827,0.461,1.146c0.32,0.308,0.702,0.461,1.146,0.461
		c0.434,0,0.81-0.154,1.13-0.461c0.308-0.319,0.462-0.702,0.462-1.146V37.16h6.654v5.429c0,0.444,0.154,0.827,0.462,1.146
		c0.308,0.308,0.684,0.461,1.129,0.461c0.445,0,0.821-0.154,1.129-0.461c0.319-0.319,0.479-0.702,0.479-1.146v-9.602
		c0-0.672-0.108-1.334-0.325-1.984V30.968z M16.215,33.961H9.561v-0.975c0-0.433,0.085-0.85,0.256-1.248
		c0.011-0.035,0.017-0.046,0.017-0.035c0.115-0.284,0.269-0.547,0.462-0.787c0.012,0,0.023-0.005,0.035-0.017
		c0-0.012,0.006-0.023,0.017-0.035c0.103-0.114,0.217-0.229,0.342-0.342c0.058-0.058,0.092-0.086,0.103-0.086
		c0.068-0.057,0.138-0.108,0.206-0.154c0.056-0.045,0.131-0.091,0.223-0.137c0.057-0.034,0.137-0.073,0.239-0.119
		c0.069-0.035,0.144-0.068,0.223-0.103l0.171-0.051c0.125-0.045,0.256-0.08,0.393-0.103c0.023,0,0.069-0.005,0.137-0.017
		c0.16-0.023,0.302-0.034,0.427-0.034h0.154c0.126,0,0.268,0.011,0.428,0.034c0.068,0.011,0.113,0.017,0.136,0.017
		c0.137,0.023,0.268,0.058,0.393,0.103c0.012,0,0.063,0.017,0.154,0.051c0.081,0.035,0.16,0.068,0.24,0.103
		c0.091,0.046,0.171,0.085,0.24,0.119c0.08,0.046,0.154,0.092,0.222,0.137c0.068,0.046,0.137,0.098,0.205,0.154
		c0.023,0.023,0.058,0.051,0.103,0.086c0.126,0.113,0.239,0.228,0.342,0.342c0.035,0.046,0.046,0.062,0.035,0.051
		c0.193,0.24,0.354,0.503,0.479,0.787l0.018,0.035c0.171,0.398,0.256,0.815,0.256,1.248V33.961z"/>
	<path fill="#D52A2D" d="M41.74,26.417c-0.501,0-0.929,0.177-1.282,0.531c-0.354,0.354-0.53,0.781-0.53,1.283
		c0,0.491,0.176,0.913,0.53,1.266c0.354,0.354,0.781,0.53,1.282,0.53c0.49,0,0.914-0.177,1.267-0.53
		c0.353-0.353,0.531-0.775,0.531-1.266c0-0.501-0.178-0.929-0.531-1.283C42.653,26.594,42.23,26.417,41.74,26.417z"/>
	<path fill="#D52A2D" d="M41.74,31.583c-0.443,0-0.826,0.154-1.146,0.461c-0.307,0.308-0.461,0.685-0.461,1.13v9.414
		c0,0.445,0.154,0.827,0.461,1.146c0.32,0.308,0.703,0.462,1.146,0.462c0.434,0,0.811-0.154,1.129-0.462
		c0.309-0.319,0.462-0.701,0.462-1.146v-9.414c0-0.445-0.153-0.822-0.462-1.13C42.551,31.738,42.173,31.583,41.74,31.583z"/>
	<path fill="#D52A2D" d="M88.342,31.195c-0.353-0.867-0.861-1.636-1.522-2.31c-1.392-1.415-3.08-2.122-5.064-2.122h-0.12
		c-1.961,0-3.637,0.696-5.029,2.088c-1.392,1.38-2.087,3.051-2.087,5.012v3.285c0.022,1.95,0.725,3.609,2.104,4.979
		c1.392,1.38,3.063,2.069,5.013,2.069h0.12c2.396,0,4.306-0.968,5.731-2.908c0.32-0.433,0.4-0.913,0.24-1.438
		c-0.161-0.513-0.496-0.855-1.01-1.026c-0.741-0.262-1.34-0.08-1.796,0.548c-0.787,1.083-1.841,1.625-3.166,1.625h-0.12
		c-1.083,0-2.006-0.382-2.771-1.146c-0.764-0.763-1.146-1.687-1.146-2.771l7.955-0.018c1.22,0,2.138-0.53,2.754-1.59
		c0.296-0.491,0.445-1.027,0.445-1.609v-0.615c0,0-0.04-0.2-0.12-0.6C88.672,32.147,88.536,31.663,88.342,31.195z M77.719,33.881
		v-0.018c0-1.072,0.382-1.99,1.146-2.754c0.765-0.764,1.688-1.146,2.771-1.146h0.12c1.061,0,1.979,0.383,2.754,1.146
		c0.753,0.776,1.136,1.7,1.146,2.772H77.719z"/>
	<path fill="#D52A2D" d="M37.175,32.91c-0.004-0.019-0.042-0.211-0.119-0.592c-0.08-0.501-0.216-0.986-0.411-1.454
		c-0.353-0.867-0.862-1.636-1.523-2.309c-1.392-1.414-3.08-2.122-5.063-2.122h-0.12c-1.962,0-3.638,0.696-5.03,2.088
		c-1.227,1.216-1.906,2.662-2.051,4.33c-0.013,0.023-0.022,0.039-0.022,0.039v9.7c0,0.445,0.153,0.827,0.462,1.146
		c0.318,0.308,0.701,0.462,1.146,0.462c0.434,0,0.81-0.154,1.13-0.462c0.307-0.319,0.461-0.701,0.461-1.146v-8.776
		c0-1.083,0.382-2.008,1.146-2.772c0.764-0.764,1.688-1.146,2.771-1.146h0.12c1.072,0,1.99,0.382,2.754,1.146
		c0.775,0.764,1.164,1.688,1.164,2.772v8.776c0,0.445,0.153,0.827,0.462,1.146c0.308,0.308,0.684,0.462,1.129,0.462
		c0.444,0,0.821-0.154,1.129-0.462c0.318-0.319,0.479-0.701,0.479-1.146v-8.776c0-0.309-0.024-0.608-0.058-0.903H37.175z"/>
	<path fill="#D52A2D" d="M72.095,33.075c-0.004-0.019-0.042-0.211-0.119-0.591c-0.08-0.501-0.216-0.986-0.41-1.455
		c-0.354-0.866-0.862-1.636-1.523-2.309c-1.393-1.414-3.08-2.122-5.064-2.122h-0.12c-1.961,0-3.639,0.696-5.029,2.086
		c-0.167,0.166-0.322,0.336-0.469,0.511c-0.134-0.163-0.274-0.323-0.424-0.476c-1.393-1.414-3.08-2.122-5.064-2.122h-0.12
		c-1.962,0-3.639,0.696-5.03,2.086c-1.227,1.217-1.906,2.662-2.052,4.331c-0.012,0.022-0.022,0.038-0.022,0.038v9.7
		c0,0.445,0.155,0.827,0.462,1.147c0.32,0.307,0.702,0.461,1.147,0.461c0.433,0,0.81-0.154,1.128-0.461
		c0.308-0.321,0.462-0.703,0.462-1.147v-8.776c0-1.083,0.382-2.007,1.146-2.771c0.764-0.764,1.688-1.147,2.772-1.147h0.119
		c1.072,0,1.99,0.383,2.754,1.147c0.625,0.615,0.994,1.336,1.115,2.16v9.387c0,0.445,0.154,0.827,0.462,1.147
		c0.319,0.307,0.702,0.461,1.146,0.461c0.005,0,0.01-0.001,0.015-0.001s0.01,0.001,0.016,0.001c0.445,0,0.821-0.154,1.129-0.461
		c0.32-0.321,0.479-0.703,0.479-1.147v-8.776c0-0.164-0.007-0.325-0.018-0.484c0.099-0.876,0.469-1.64,1.116-2.287
		c0.764-0.764,1.688-1.147,2.772-1.147h0.119c1.072,0,1.99,0.383,2.754,1.147c0.776,0.764,1.163,1.688,1.163,2.771v8.776
		c0,0.445,0.154,0.827,0.462,1.147c0.308,0.307,0.684,0.461,1.129,0.461s0.821-0.154,1.13-0.461
		c0.319-0.321,0.478-0.703,0.478-1.147v-8.776c0-0.309-0.023-0.608-0.058-0.903H72.095z"/>
	<path fill="#D52A2D" d="M54.021,9.78h4.26v12.646c0,0.445,0.16,0.827,0.479,1.147c0.308,0.307,0.684,0.461,1.128,0.461
		c0.434,0,0.811-0.154,1.129-0.461c0.308-0.32,0.462-0.702,0.462-1.147V9.78h4.277c0.445,0,0.82-0.16,1.128-0.479
		c0.309-0.309,0.463-0.685,0.463-1.129c0-0.433-0.154-0.81-0.463-1.129c-0.308-0.308-0.684-0.461-1.128-0.461H54.021
		c-0.444,0-0.826,0.153-1.146,0.461c-0.308,0.319-0.462,0.696-0.462,1.129c0,0.445,0.154,0.821,0.462,1.129
		C53.195,9.621,53.578,9.78,54.021,9.78z"/>
	<path fill="#D52A2D" d="M24.356,22.548V17.12h6.654v5.428c0,0.445,0.154,0.827,0.461,1.146c0.308,0.308,0.685,0.462,1.13,0.462
		c0.445,0,0.82-0.154,1.129-0.462c0.319-0.319,0.479-0.701,0.479-1.146v-9.602c0-0.672-0.108-1.334-0.325-1.984v-0.034
		c0-0.023-0.005-0.041-0.018-0.052c-0.707-2.087-2.109-3.456-4.209-4.106c-0.011,0-0.023-0.005-0.033-0.017
		c-0.171-0.045-0.349-0.091-0.531-0.137h-0.068C29.003,6.606,28.985,6.6,28.975,6.6c-0.16-0.034-0.325-0.062-0.496-0.085
		l-0.137-0.017c-0.216-0.011-0.416-0.017-0.599-0.017h-0.12c-0.183,0-0.388,0.006-0.616,0.017l-0.12,0.017
		c-0.171,0.023-0.337,0.051-0.497,0.085c-0.011,0-0.033,0.007-0.068,0.018h-0.051c-0.183,0.045-0.359,0.091-0.531,0.137
		c-0.023,0.012-0.04,0.017-0.051,0.017c-2.099,0.65-3.501,2.019-4.209,4.106c0.023-0.057,0.018-0.028-0.018,0.085
		c-0.205,0.65-0.307,1.312-0.307,1.984v9.602c0,0.445,0.153,0.827,0.461,1.146c0.32,0.308,0.702,0.462,1.147,0.462
		c0.433,0,0.809-0.154,1.129-0.462C24.202,23.375,24.356,22.993,24.356,22.548z M24.356,12.947c0-0.434,0.084-0.85,0.256-1.249
		c0.012-0.034,0.017-0.045,0.017-0.034c0.115-0.285,0.269-0.548,0.461-0.787c0.012,0,0.023-0.006,0.035-0.017
		c0-0.011,0.005-0.022,0.017-0.034c0.102-0.114,0.216-0.228,0.342-0.343c0.058-0.056,0.091-0.085,0.103-0.085
		c0.068-0.057,0.138-0.108,0.206-0.153c0.056-0.046,0.131-0.091,0.223-0.137c0.057-0.034,0.137-0.074,0.239-0.12
		c0.068-0.034,0.143-0.068,0.223-0.103l0.171-0.05c0.125-0.046,0.256-0.08,0.394-0.103c0.022,0,0.068-0.006,0.137-0.018
		c0.16-0.022,0.302-0.034,0.427-0.034h0.154c0.126,0,0.268,0.012,0.428,0.034c0.068,0.011,0.113,0.018,0.136,0.018
		c0.137,0.023,0.268,0.057,0.393,0.103c0.012,0,0.063,0.017,0.154,0.05c0.081,0.035,0.16,0.069,0.24,0.103
		c0.091,0.046,0.171,0.085,0.24,0.12c0.08,0.046,0.154,0.091,0.222,0.137c0.068,0.045,0.137,0.096,0.205,0.153
		c0.023,0.023,0.058,0.052,0.103,0.085c0.126,0.115,0.24,0.229,0.343,0.343c0.035,0.045,0.046,0.063,0.035,0.051
		c0.193,0.239,0.354,0.502,0.479,0.787l0.017,0.034c0.172,0.399,0.257,0.815,0.257,1.249v0.974h-6.654V12.947z"/>
	<path fill="#D52A2D" d="M49.568,20.04c0.48-1.768,0.109-3.353-1.111-4.756c-1.209-1.369-2.783-2.053-4.722-2.053
		c-0.605,0-1.1-0.216-1.488-0.649c-0.399-0.422-0.537-0.913-0.411-1.471c0.091-0.411,0.325-0.748,0.701-1.01
		c0.365-0.251,0.782-0.375,1.25-0.375h0.034c0.741,0,1.3,0.291,1.676,0.872c0.376,0.582,0.901,0.873,1.575,0.873
		c0.673,0,1.18-0.263,1.522-0.788c0.342-0.524,0.348-1.055,0.018-1.59c-1.049-1.71-2.646-2.566-4.79-2.566h-0.052
		c-1.232,0-2.344,0.325-3.336,0.976c-0.992,0.672-1.648,1.533-1.968,2.583c-0.49,1.62-0.188,3.08,0.907,4.379
		c1.072,1.278,2.492,1.934,4.26,1.968c0.65,0.012,1.214,0.194,1.693,0.547c0.502,0.376,0.793,0.845,0.873,1.403
		c0.091,0.673-0.108,1.266-0.598,1.78c-0.502,0.501-1.124,0.752-1.865,0.752h-0.085c-1.038,0-1.78-0.422-2.225-1.266
		c-0.354-0.65-0.901-0.975-1.643-0.975c-0.638,0-1.134,0.246-1.488,0.736c-0.343,0.501-0.375,1.015-0.102,1.54
		c0.479,0.947,1.203,1.711,2.172,2.292c0.993,0.582,2.087,0.872,3.285,0.872h0.033c1.38,0,2.624-0.375,3.73-1.128
		C48.53,22.219,49.249,21.237,49.568,20.04z"/>
	<path fill="#D52A2D" d="M89.473,14.041c-0.193-0.148-0.407-0.27-0.639-0.35c-1.562-0.523-3.121-1.05-4.687-1.563
		c-0.191-0.064-0.277-0.132-0.298-0.348c-0.149-1.498-0.315-2.993-0.479-4.489c-0.044-0.402-0.098-0.806-0.281-1.177
		c-0.229-0.461-0.644-0.604-1.104-0.367c-0.242,0.123-0.435,0.309-0.596,0.525c-1.004,1.344-2.007,2.688-3.002,4.039
		c-0.103,0.141-0.184,0.2-0.368,0.161c-1.496-0.332-2.992-0.655-4.492-0.967c-0.304-0.064-0.617-0.106-0.933-0.092
		c-0.811,0.039-1.134,0.572-0.795,1.312c0.122,0.266,0.277,0.509,0.447,0.744c0.858,1.196,1.708,2.395,2.58,3.584
		c0.181,0.248,0.192,0.439,0.035,0.704c-0.534,0.895-1.057,1.796-1.563,2.708c-0.353,0.637-0.775,1.24-0.964,1.768
		c-0.272,0.995,0.05,1.389,0.912,1.347c0.175-0.007,0.344-0.035,0.512-0.086c1.517-0.479,3.037-0.939,4.545-1.438
		c0.327-0.107,0.502-0.042,0.723,0.203c1.064,1.194,2.141,2.382,3.234,3.549c0.324,0.348,0.72,0.7,1.246,0.51
		c0.533-0.191,0.594-0.722,0.604-1.197c0.039-1.598,0.053-3.196,0.05-4.794c0-0.348,0.104-0.526,0.427-0.666
		c1.351-0.583,2.693-1.192,4.033-1.797c0.349-0.158,0.696-0.327,0.959-0.616C89.942,14.845,89.906,14.37,89.473,14.041z"/>
	<path fill="#D52A2D" d="M88.208,0H6.715C3.012,0,0,3.012,0,6.715v36.57C0,46.988,3.012,50,6.715,50h81.494
		c3.703,0,6.715-3.012,6.715-6.715V6.715C94.924,3.012,91.911,0,88.208,0z M93.4,43.285c0,2.862-2.329,5.191-5.191,5.191H6.715
		c-2.862,0-5.191-2.329-5.191-5.191V6.715c0-2.863,2.329-5.192,5.191-5.192h81.494c2.863,0,5.191,2.329,5.191,5.192V43.285z"/>
</g>
</svg>
